<?xml version="1.0" encoding="utf-8"?>
<!-- Generator: Adobe Illustrator 16.0.0, SVG Export Plug-In . SVG Version: 6.00 Build 0)  -->
<!DOCTYPE svg PUBLIC "-//W3C//DTD SVG 1.1//EN" "http://www.w3.org/Graphics/SVG/1.1/DTD/svg11.dtd">
<svg version="1.1" xmlns="http://www.w3.org/2000/svg" xmlns:xlink="http://www.w3.org/1999/xlink" x="0px" y="0px"
	 width="469.431px" height="693.27px" viewBox="0 0 469.431 693.27" enable-background="new 0 0 469.431 693.27"
	 xml:space="preserve">
<g id="bg" display="none">
	<rect x="-8.569" y="-8.73" display="inline" fill="#000066" width="479" height="703"/>
</g>
<g id="logo">
	<g>
		<path fill="#FFFFFF" d="M41.493,17.535c0.428-0.12,0.858-0.107,1.286,0.045c0.431,0.121,0.752,0.348,0.965,0.68
			c0.215,0.394,0.215,0.816,0,1.268c-1.072,2.085-2.536,3.702-4.394,4.851c-1.861,1.148-3.986,1.721-6.383,1.721
			c-3.5,0-6.324-1.329-8.469-3.987c-1.93-2.417-2.896-5.364-2.896-8.839c0-3.537,0.966-6.529,2.896-8.975
			c2.145-2.66,4.968-3.988,8.469-3.988c3.469,0,6.293,1.329,8.471,3.988c2.001,2.478,3.003,5.471,3.003,8.975v0.68H24.98
			c0.143,2.538,0.858,4.713,2.146,6.527c1.502,2.084,3.451,3.126,5.841,3.126c1.825,0,3.381-0.528,4.667-1.585
			c1.034-0.786,1.963-1.966,2.785-3.536C40.637,18.035,40.991,17.716,41.493,17.535z M40.853,11.461
			c-0.182-2.115-0.896-4.005-2.146-5.667c-1.505-1.994-3.415-2.991-5.74-2.991c-2.358,0-4.27,0.982-5.735,2.946
			c-1.215,1.633-1.908,3.537-2.088,5.712H40.853z"/>
		<path fill="#FFFFFF" d="M125.436,17.505c0.43-0.12,0.856-0.104,1.287,0.047c0.426,0.119,0.747,0.346,0.963,0.677
			c0.211,0.393,0.211,0.815,0,1.267c-1.073,2.084-2.538,3.697-4.388,4.843c-1.859,1.146-3.982,1.721-6.373,1.721
			c-3.495,0-6.313-1.328-8.456-3.984c-1.926-2.413-2.888-5.353-2.888-8.825c0-3.529,0.961-6.515,2.888-8.959
			c2.142-2.655,4.961-3.981,8.456-3.981c3.461,0,6.282,1.326,8.456,3.981c1.998,2.474,2.997,5.462,2.997,8.959v0.681h-19.426
			c0.142,2.532,0.855,4.704,2.139,6.515c1.498,2.082,3.446,3.123,5.834,3.123c1.821,0,3.374-0.528,4.658-1.583
			c1.033-0.786,1.961-1.959,2.784-3.529C124.577,18.004,124.937,17.688,125.436,17.505z M124.795,11.442
			c-0.181-2.113-0.889-3.999-2.141-5.656c-1.498-1.993-3.408-2.986-5.728-2.986c-2.353,0-4.264,0.98-5.723,2.941
			c-1.219,1.63-1.913,3.529-2.093,5.702H124.795z"/>
		<path fill="#FFFFFF" d="M85.69,5.443v19.14c0,0.45,0.162,0.825,0.48,1.127c0.322,0.238,0.709,0.359,1.173,0.359
			c0.426,0,0.802-0.134,1.119-0.405c0.359-0.271,0.534-0.63,0.534-1.081V5.443H85.69z"/>
		<path fill="#FFFFFF" d="M89,3.056V1.61c0-0.421-0.18-0.75-0.536-0.991c-0.318-0.211-0.696-0.316-1.122-0.316
			c-0.463,0-0.853,0.12-1.173,0.361c-0.322,0.209-0.481,0.526-0.481,0.947v1.446H89z"/>
		<path fill="#FFFFFF" d="M95.981,0.606c0.321-0.211,0.712-0.316,1.175-0.316c0.424,0,0.8,0.105,1.119,0.316
			c0.355,0.241,0.534,1.123,0.534,1.575v0.988h4.376c0.961,0,1.442,0.405,1.442,1.218c-0.036,0.842-0.518,1.263-1.442,1.263H98.81
			v15.789c0,0.541,0.178,0.993,0.533,1.354c0.426,0.452,1.032,0.677,1.814,0.677h1.921c0.5,0,0.909,0.122,1.229,0.361
			c0.286,0.239,0.424,0.527,0.424,0.858c0,0.33-0.138,0.614-0.424,0.855c-0.32,0.271-0.728,0.405-1.229,0.405h-2.506
			c-1.637,0-2.917-0.449-3.842-1.353c-0.816-0.811-1.228-1.803-1.228-2.978V5.649h-1.71c-0.819,0-1.23-0.421-1.23-1.263
			c0-0.813,0.411-1.218,1.23-1.218h1.71V2.181C95.501,1.729,95.658,0.847,95.981,0.606z"/>
		<g>
			<path fill="#FFFFFF" d="M15.782,1.647c2.064,1.196,3.105,3.004,3.105,5.422c0,1.656-0.367,2.432-1.094,3.399
				c-0.613,0.828-1.62,1.521-3.02,2.072c1.081,0.162,1.971,0.577,2.667,1.244c0.878,0.851,1.314,2.009,1.314,3.55
				c-0.031,1.612,0,3.394,0.087,4.201c0.087,1.382,0.292,2.228,0.612,2.921c0.178,0.368,0.178,0.702,0,1
				c-0.172,0.254-0.435,0.438-0.791,0.552c-0.375,0.092-0.741,0.092-1.089,0c-0.351-0.114-0.6-0.32-0.744-0.621
				c-0.383-0.736-0.627-1.763-0.744-3.073c-0.06-0.83-0.09-1.806-0.09-3.51l0.046-1.729c0-0.921-0.48-1.705-1.443-2.305
				c-0.847-0.529-1.724-0.795-2.625-0.795H3.092v10.927c0,0.368-0.148,0.657-0.44,0.865c-0.262,0.205-0.566,0.31-0.918,0.31
				c-0.379,0-0.698-0.104-0.963-0.31c-0.26-0.208-0.391-0.498-0.391-1.401V3.288c0-0.709,0.363-1.606,1.092-2.16
				c0.758-0.573,2.044-0.862,3.851-0.862h4.462C12.179,0.266,14.176,0.726,15.782,1.647z M10.935,2.585H5.157
				c-0.794,0-1.352,0.114-1.674,0.345C3.191,3.139,3.042,3.511,3.042,4.044v7.44h7.893c5.673,0.031,4.938-4.693,4.938-4.693
				C15.872,2.384,10.935,2.585,10.935,2.585z"/>
		</g>
		<g>
			<path fill="#FFFFFF" d="M46.332,0.662c0.257-0.221,0.579-0.346,0.965-0.368c0.385-0.021,0.717,0.034,1.004,0.168
				c0.356,0.155,0.565,0.387,0.627,0.698l2.98,19.967L56.137,1.36c0.288-0.733,0.93-1.099,1.922-1.099
				c0.992,0,1.638,0.365,1.922,1.099l4.184,19.768l2.93-19.832c0.063-0.355,0.274-0.633,0.626-0.833
				c0.287-0.155,0.64-0.223,1.056-0.201c0.382,0.022,0.69,0.134,0.913,0.333c0.255,0.223,0.351,0.501,0.29,0.833l-3.8,23.462
				c-0.065,0.376-0.286,0.677-0.674,0.901c-0.348,0.197-0.765,0.298-1.247,0.298c-0.481,0-0.896-0.101-1.25-0.298
				c-0.387-0.224-0.607-0.524-0.67-0.901L58.059,4.645l-4.324,20.311c-0.095,0.356-0.334,0.644-0.72,0.865
				c-0.352,0.178-0.769,0.267-1.25,0.267c-0.479,0-0.898-0.089-1.248-0.267c-0.388-0.222-0.596-0.509-0.628-0.865L46.092,1.559
				C45.997,1.183,46.077,0.885,46.332,0.662z"/>
		</g>
		<path fill="#FFFFFF" d="M73.384,10.962V4.86c0-1.228,0.408-2.269,1.225-3.119c0.925-0.944,2.208-1.418,3.843-1.418h2.508
			c0.501,0,0.911,0.143,1.229,0.425c0.282,0.254,0.425,0.552,0.425,0.899c0,0.346-0.144,0.781-0.425,1.034
			c-0.318,0.252-0.728,0.378-1.229,0.378h-1.92c-0.781,0-1.388,0.237-1.816,0.708c-0.353,0.379-0.529,0.716-0.529,1.283v5.911
			l0.014,0.029l-0.05,13.861c0,0.423-0.181,0.771-0.534,1.044c-0.319,0.241-0.695,0.361-1.119,0.361
			c-0.464,0-0.855-0.106-1.179-0.317c-0.317-0.273-0.481-0.637-0.481-1.088L73.384,10.962z"/>
	</g>
</g>
<g id="moodle">
	<g opacity="0.75">
		<path fill="#FFFFFF" d="M8.894,65.235c-1.898-1.112-1.805-2.748,0.208-3.637l40.865-18.034c2.013-0.889,5.319-0.919,7.348-0.068
			l41.234,17.301c2.029,0.851,2.139,2.463,0.245,3.583L56.771,89.222c-1.894,1.12-4.997,1.126-6.895,0.014L8.894,65.235z"/>
	</g>
	<rect x="4.227" y="128.536" opacity="0.75" fill="#CC0000" width="4.435" height="3.171"/>
	<polygon opacity="0.75" fill="#CC0000" points="8.631,111.289 12.782,111.289 12.782,131.726 8.651,131.726 	"/>
	<path opacity="0.75" fill="#CC0000" d="M10.182,90.923c5.621,0,10.18,4.633,10.18,10.347c0,5.713-4.559,10.342-10.18,10.342
		C4.558,111.612,0,106.983,0,101.271C0,95.557,4.558,90.923,10.182,90.923z M4.801,101.271c0,3.019,2.408,5.467,5.381,5.467
		c2.97,0,5.38-2.448,5.38-5.467c0-3.022-2.41-5.469-5.38-5.469C7.209,95.801,4.801,98.249,4.801,101.271z"/>
	<rect x="4.227" y="121.205" opacity="0.75" fill="#CC0000" width="4.435" height="3.17"/>
	<polygon opacity="0.75" fill="#CC0000" points="81.74,101.123 81.74,77.576 53.604,94.732 25.691,77.576 25.682,101.123 	"/>
	
		<line opacity="0.75" fill="none" stroke="#CC0000" stroke-width="4" stroke-miterlimit="10" x1="10.431" y1="72.651" x2="10.431" y2="91.27"/>
</g>
<g id="wordpress">
	<g opacity="0.7">
		<g>
			<path fill="#03F0FC" d="M11.34,242.065l0.816,4.761c-2.134,0.37-4.228,0.023-6.046-0.872c-2.836-1.395-4.997-4.117-5.579-7.515
				c-0.954-5.577,2.697-10.866,8.163-11.81l0.817,4.763c-2.892,0.499-4.821,3.291-4.313,6.241
				C5.704,240.585,8.452,242.566,11.34,242.065"/>
			<g>
				<g>
					<g>
						<path fill="#03F0FC" d="M106.379,227.891c0,2.2-1.8,4-4,4H9.574c-2.2,0-4-1.8-4-4v-61.286c0-2.2,1.8-4,4-4h92.806
							c2.2,0,4,1.8,4,4V227.891z M101.964,169.639c0-2.2-1.8-4-4-4H13.987c-2.2,0-4,1.8-4,4v55.218c0,2.2,1.8,4,4,4h83.977
							c2.2,0,4-1.8,4-4V169.639z"/>
					</g>
				</g>
				<g>
					<path fill="#FFFFFF" d="M98.275,221.269c0,2.2-1.8,4-4,4H17.922c-2.2,0-4-1.8-4-4v-47.76c0-2.2,1.8-4,4-4h76.353
						c2.2,0,4,1.8,4,4V221.269z"/>
				</g>
			</g>
			<rect x="10.421" y="280.221" fill="#03F0FC" width="5.404" height="3.365"/>
			<polygon fill="#03F0FC" points="15.072,261.768 19.457,261.768 19.457,283.606 15.094,283.606 			"/>
			<path fill="#03F0FC" d="M16.851,240.492c5.877,0,10.644,4.866,10.644,10.867s-4.767,10.864-10.644,10.864
				c-5.882,0-10.647-4.862-10.647-10.864S10.969,240.492,16.851,240.492z M11.225,251.359c0,3.172,2.517,5.743,5.626,5.743
				c3.105,0,5.625-2.57,5.625-5.743c0-3.174-2.52-5.744-5.625-5.744C13.741,245.615,11.225,248.186,11.225,251.359z"/>
			<rect x="10.421" y="272.446" fill="#03F0FC" width="5.404" height="3.361"/>
		</g>
		<path fill="#020F44" d="M57.887,172.542h1.804c5.474,0,10.797,2.236,15.969,6.706c5.113,5.257,7.668,11.269,7.668,18.036
			c0,7.673-3.218,14.228-9.653,19.664c-4.691,3.386-9.714,5.077-15.066,5.077c-7.037,0-13.202-2.81-18.496-8.428
			c-4.03-5.016-6.044-10.121-6.044-15.317v-1.812c0-6.163,2.526-11.903,7.579-17.22c0.12,0,0.751-0.543,1.894-1.631
			C48.293,174.234,53.075,172.542,57.887,172.542z M37.498,197.193c0,3.081,0.692,6.193,2.075,9.334
			c2.406,4.593,5.683,7.854,9.834,9.788h0.09l-10.014-27.732h-0.181C38.1,191.543,37.498,194.414,37.498,197.193z M45.256,180.789
			c-2.225,2.054-3.638,3.625-4.24,4.712v0.182h0.361l6.856-0.272c0.42,0.182,0.631,0.453,0.631,0.816v0.272
			c0,0.483-1.022,0.725-3.068,0.725h-0.09v0.091l7.669,23.019h0.09l4.602-13.865l-3.248-9.154l-0.452-0.091
			c-1.744,0-2.615-0.332-2.615-0.997h0.089c0-0.363,0.15-0.634,0.451-0.816l5.956,0.272l5.864-0.272
			c0.3,0.061,0.511,0.302,0.63,0.725v0.272c0,0.543-1.052,0.815-3.157,0.815h-0.09l5.414,16.132
			c1.443,4.532,2.224,6.797,2.344,6.797l1.444-4.984c1.504-4.29,2.255-7.22,2.255-8.791c0-1.873-0.421-3.625-1.262-5.255
			c-1.685-2.538-2.525-4.411-2.525-5.62v-0.815c0.661-2.054,1.834-3.082,3.517-3.082l0.271,0.09v-0.09
			c-4.15-3.746-8.9-5.619-14.253-5.619C53.767,175.986,49.286,177.587,45.256,180.789z M52.654,217.583
			c1.865,0.605,3.849,0.908,5.955,0.908c2.345,0,4.69-0.394,7.037-1.178h0.09l-4.24-11.51c-1.564-4.531-2.406-6.797-2.526-6.797
			L52.654,217.583z M77.285,189.218c0,1.329-0.21,2.87-0.632,4.622l-7.398,21.66v0.091h0.09c1.023-0.604,2.105-1.39,3.249-2.358
			c4.81-4.469,7.217-9.786,7.217-15.949c0-3.445-0.841-6.859-2.526-10.242h-0.181L77.285,189.218z"/>
	</g>
</g>
<g id="key">
	<g opacity="0.75">
		<g>
			<g opacity="0.75">
				<rect x="139.329" y="406.855" fill="#06C149" width="12.979" height="9.288"/>
			</g>
			<g opacity="0.75">
				<path fill="#06C149" d="M152.218,356.355c0,0,2.688,0.788,5.953,0.841c3.291,0.053,6.198-0.522,6.198-0.522v59.523h-12.091
					L152.218,356.355z"/>
			</g>
			<g opacity="0.75">
				<g>
					<path fill="#06C149" d="M159.038,297.197c16.287,0,29.496,13.432,29.496,29.997c0,16.563-13.209,29.984-29.496,29.984
						c-16.297,0-29.504-13.422-29.504-29.984C129.534,310.628,142.74,297.197,159.038,297.197z M143.447,327.194
						c0,8.754,6.975,15.849,15.591,15.849c8.605,0,15.589-7.095,15.589-15.849c0-8.762-6.983-15.855-15.589-15.855
						C150.422,311.338,143.447,318.432,143.447,327.194z"/>
				</g>
			</g>
			<g opacity="0.75">
				<rect x="139.329" y="385.389" fill="#06C149" width="12.979" height="9.283"/>
			</g>
		</g>
	</g>
	<g>
		<g opacity="0.7">
			<path fill="#FFFFFF" d="M73.228,361.016c0,2.2-1.8,4-4,4H14.291c-2.2,0-4-1.8-4-4v-14.492c0-2.2,1.8-4,4-4h54.937
				c2.2,0,4,1.8,4,4V361.016z"/>
		</g>
		<g opacity="0.7">
			<path fill="#FFFFFF" d="M103.422,335.077c0,2.201-1.8,4-4,4H14.291c-2.2,0-4-1.799-4-4v-10.641c0-2.2,1.8-4,4-4h85.131
				c2.2,0,4,1.8,4,4V335.077z"/>
		</g>
		<g opacity="0.7">
			<path fill="#06C149" d="M37.765,313.098c0,2.201-1.8,4-4,4H14.291c-2.2,0-4-1.799-4-4v-4.486c0-2.2,1.8-4,4-4h19.474
				c2.2,0,4,1.8,4,4V313.098z"/>
		</g>
		<g opacity="0.7">
			<path fill="#FFFFFF" d="M102.994,313.098c0,2.201-1.8,4-4,4H46.778c-2.2,0-4-1.799-4-4v-4.486c0-2.2,1.8-4,4-4h52.216
				c2.2,0,4,1.8,4,4V313.098z"/>
		</g>
		<g opacity="0.7">
			<path fill="none" stroke="#06C149" stroke-width="4" stroke-miterlimit="10" d="M90.172,372.272H7c-2.2,0-4-1.799-4-4v-64.807
				c0-2.199,1.8-4,4-4h98.79c2.2,0,4,1.801,4,4v60.249"/>
		</g>
		<polygon opacity="0.7" fill="#06C149" points="100.138,379.272 110.334,372.493 96.174,350.342 85.979,357.125 		"/>
		<polyline opacity="0.7" fill="#FFFFFF" points="83.535,342.717 84.342,354.562 94.538,347.782 		"/>
	</g>
	<g opacity="0.8">
		<g opacity="0.7">
			<path fill="#FFFFFF" d="M242.67,358.479c0,1.1-0.9,2-2,2h-22.723c-1.1,0-2-0.9-2-2v-6.029c0-1.1,0.9-2,2-2h22.723
				c1.1,0,2,0.9,2,2V358.479z"/>
		</g>
		<g opacity="0.7">
			<path fill="#FFFFFF" d="M257.82,345.608c0,1.1-0.9,2-2,2h-37.872c-1.1,0-2-0.9-2-2v-11.145c0-1.1,0.9-2,2-2h37.872
				c1.1,0,2,0.9,2,2V345.608z"/>
		</g>
		<g opacity="0.7">
			<path fill="none" stroke="#FFFFFF" stroke-width="5" stroke-linecap="round" stroke-linejoin="round" stroke-miterlimit="10" d="
				M250.992,366.102h-35.942c-2.2,0-4-1.799-4-4v-30.939c0-2.2,1.8-4,4-4h43.177c2.2,0,4,1.8,4,4v28.137"/>
		</g>
		<g>
			<polygon opacity="0.7" fill="#FFFFFF" points="258.097,369.288 262.047,366.662 254.694,355.776 250.745,358.405 			"/>
			<polyline opacity="0.7" fill="#FFFFFF" points="248.708,351.184 249.863,357.038 253.813,354.411 			"/>
		</g>
	</g>
	<g opacity="0.8">
		<g>
			<polygon opacity="0.7" fill="#FFFFFF" points="262.013,428.342 265.962,425.715 258.609,414.831 254.659,417.459 			"/>
			<polyline opacity="0.7" fill="#FFFFFF" points="252.623,410.238 253.777,416.092 257.727,413.465 			"/>
		</g>
		<g opacity="0.7">
			<path fill="none" stroke="#FFFFFF" stroke-width="5" stroke-linecap="round" stroke-linejoin="round" stroke-miterlimit="10" d="
				M254.938,426.744h-40.062c-2.2,0-4-1.8-4-4v-35.747c0-2.2,1.8-4,4-4h38.667c2.2,0,4,1.8,4,4v18.875"/>
		</g>
		<g opacity="0.7">
			<g>
				<path fill="#FFFFFF" d="M238.982,408.727h-10.333l-1.811,4.211c-0.446,1.037-0.669,1.811-0.669,2.322
					c0,0.408,0.193,0.764,0.583,1.072c0.385,0.309,1.22,0.508,2.507,0.602v0.728h-8.404v-0.728c1.116-0.199,1.838-0.453,2.166-0.77
					c0.67-0.63,1.411-1.908,2.224-3.836l9.387-21.965h0.689l9.29,22.2c0.746,1.784,1.427,2.94,2.037,3.472
					c0.611,0.533,1.459,0.83,2.548,0.898v0.728h-10.53v-0.728c1.064-0.053,1.782-0.231,2.155-0.534
					c0.374-0.301,0.561-0.669,0.561-1.101c0-0.577-0.262-1.489-0.787-2.735L238.982,408.727z M238.431,407.27l-4.527-10.785
					l-4.645,10.785H238.431z"/>
			</g>
		</g>
	</g>
	<g opacity="0.6">
		<g>
			<path fill="#FFFFFF" d="M220.147,447.396c-3.445,0-6.241,2.793-6.241,6.239c0,1.73,0.716,3.284,1.856,4.413v-2.975
				c0,0,0.077-0.933,0.077-1.438c0-2.373,1.931-4.303,4.308-4.303c2.371,0,4.301,1.93,4.301,4.303c0,0.509-0.06,1.438-0.06,1.438
				v3.122c1.222-1.139,1.996-2.754,1.996-4.561C226.384,450.189,223.591,447.396,220.147,447.396z"/>
			<path fill="#FFFFFF" d="M220.145,442.289c-6.263,0-11.343,5.081-11.343,11.347c0,4.708,2.876,8.734,6.961,10.447v-1.988
				c-3.062-1.59-5.163-4.775-5.163-8.459c0-5.262,4.282-9.545,9.544-9.545c5.263,0,9.545,4.283,9.545,9.545
				c0,3.742-2.164,6.979-5.302,8.542v1.956c4.16-1.68,7.101-5.737,7.101-10.498C231.489,447.37,226.41,442.289,220.145,442.289z"/>
		</g>
		<path fill="#FFFFFF" d="M244.818,480.92v-6.317c0-1.616-1.309-2.923-2.925-2.923c-1.609,0-2.918,1.307-2.918,2.923v1.416h-1.434
			v-4.307c0-1.616-1.303-2.923-2.919-2.923c-1.61,0-2.918,1.307-2.918,2.923v2.448h-1.434v-5.341c0-1.614-1.307-2.923-2.919-2.923
			c-1.615,0-2.919,1.309-2.919,2.923v2.45H223v-15.79c0-1.614-1.313-2.926-2.921-2.926c-1.615,0-2.923,1.312-2.923,2.926v25.854
			c0,0.109,0.02,0.217,0.032,0.325v2.399c0,3.434,2.049,6.227,4.575,6.227h18.495c2.529,0,4.574-2.793,4.574-6.227v-2.706
			C244.832,481.208,244.822,481.067,244.818,480.92z"/>
	</g>
	<g opacity="0.6">
		<g>
			<path fill="#FFFFFF" d="M249.813,508.89c-8.449-7.731-21.574-7.148-29.311,1.306c-5.811,6.351-6.902,15.331-3.505,22.686
				l2.454-2.683c-2.167-5.923-1.069-12.814,3.476-17.781c6.498-7.099,17.564-7.593,24.662-1.098
				c7.1,6.498,7.587,17.564,1.091,24.661c-4.616,5.045-11.53,6.743-17.695,4.979l-2.415,2.641
				c7.686,2.866,16.661,1.026,22.539-5.397C258.844,529.749,258.263,516.624,249.813,508.89z"/>
			<g>
				<path fill="#FFFFFF" d="M247.812,521.143l-5.664,5.074c-0.987,0.883-3.208,0.024-5.074-1.915
					c-1.716-2.066-2.321-4.361-1.337-5.244l5.666-5.077c-0.282-0.106-0.235-0.497-0.523-0.582c-3.852-1.472-8.375-0.792-11.66,2.146
					c-3.536,3.17-4.624,8.054-3.134,12.271l-16.129,14.445l-0.223,5.354l5.816,0.903l16.057-14.383
					c4.07,2.095,9.18,1.596,12.794-1.644C247.687,529.552,248.857,525.136,247.812,521.143z"/>
				<path fill="#FFFFFF" d="M209.956,542.262c0,0-2.439,2.851-0.223,5.354c2.675,3.027,5.816,0.903,5.816,0.903"/>
			</g>
		</g>
	</g>
</g>
<g id="circle">
	<path opacity="0.7" fill="#FFFFFF" d="M62.378,423.294c34.243,0,62.001,27.758,62.001,61.999c0,34.243-27.758,62.001-62.001,62.001
		S0.379,519.537,0.379,485.293C0.379,451.052,28.136,423.294,62.378,423.294z M12.302,485.293c0,27.658,22.42,50.078,50.077,50.078
		c27.658,0,50.079-22.42,50.079-50.078c0-27.656-22.42-50.076-50.079-50.076C34.722,435.217,12.302,457.637,12.302,485.293z"/>
</g>
<g id="arrows">
	<g id="arrow_x5F_left">
		
			<polyline opacity="0.75" fill="none" stroke="#FFFFFF" stroke-width="2" stroke-miterlimit="10" enable-background="new    " points="
			25.737,568.081 1.937,591.881 25.737,615.68 		"/>
		
			<polyline opacity="0.75" fill="none" stroke="#FFFFFF" stroke-width="2" stroke-miterlimit="10" enable-background="new    " points="
			1.937,640.114 25.737,663.915 1.937,687.711 		"/>
	</g>
</g>
<g id="mood2">
	<g>
		<g opacity="0.75">
			<path fill="#FFFFFF" d="M212.971,25.332c-1.897-1.112-1.805-2.748,0.208-3.637l45.499-20.08c2.013-0.889,5.319-0.918,7.348-0.067
				l45.908,19.263c2.028,0.851,2.139,2.463,0.245,3.582l-46.726,27.623c-1.894,1.119-4.997,1.126-6.896,0.014L212.971,25.332z"/>
		</g>
		<polygon opacity="0.75" fill="#CC0000" points="215.386,30.005 220.115,32.612 220.115,36.669 215.41,36.669 		"/>
		<g>
			<polygon opacity="0.75" fill="#CC0000" points="215.833,57.741 220.25,57.741 220.25,79.646 215.854,79.646 			"/>
			<path opacity="0.75" fill="#CC0000" d="M217.625,36.402c5.922,0,10.725,4.88,10.725,10.899s-4.803,10.896-10.725,10.896
				c-5.926,0-10.728-4.877-10.728-10.896S211.699,36.402,217.625,36.402z M211.956,47.302c0,3.182,2.536,5.76,5.669,5.76
				c3.129,0,5.668-2.578,5.668-5.76c0-3.184-2.539-5.762-5.668-5.762C214.492,41.54,211.956,44.118,211.956,47.302z"/>
			<rect x="211.146" y="68.45" opacity="0.75" fill="#CC0000" width="4.764" height="3.373"/>
			<rect x="211.146" y="76.251" opacity="0.75" fill="#CC0000" width="4.764" height="3.375"/>
		</g>
		<polygon opacity="0.75" fill="#CC0000" points="293.155,64.889 293.155,39.053 262.313,57.859 231.716,39.053 231.716,60.48 
			231.707,64.864 		"/>
	</g>
	<g opacity="0.75">
		<path fill="none" stroke="#CC0000" stroke-width="4" stroke-miterlimit="10" d="M10.311,53.2V40.3c0-2.2,1.8-4,4-4h89.001
			c2.2,0,4,1.8,4,4v60.79"/>
	</g>
</g>
<g id="elearning_x5F_ico">
	<path opacity="0.7" fill="#FFFFFF" d="M274.049,102.261v28.546h-49.565h0.256c-8.997,0-16.292-7.32-16.292-16.351
		c0-9.031,7.295-16.352,16.292-16.352c1.424,0,2.805,0.183,4.121,0.527h0.001c0.697-5.081,5.042-8.994,10.296-8.994
		c2.984,0,5.675,1.263,7.571,3.285l-0.111-0.014c0.01-0.014,0.021-0.027,0.031-0.041c0,0,0.001-0.001,0.001-0.001
		c2.77-3.734,7.202-6.152,12.197-6.152c8.396,0,15.202,6.83,15.202,15.256 M246.852,128.825c5.005,0,8.823-1.757,11.825-4.896
		l-1.689-2.136c-2.564,2.763-6.069,4.207-9.885,4.207c-7.132,0-11.511-5.462-11.825-12.055h25.276v-0.879
		c0-8.791-5.067-16.073-14.266-16.073c-8.383,0-14.514,7.095-14.514,15.884C231.775,122.232,238.031,128.825,246.852,128.825z
		 M257.238,111.37h-21.96c0.25-5.274,3.817-11.553,10.95-11.553C253.797,99.817,257.174,106.221,257.238,111.37z"/>
	<circle fill="none" cx="232.449" cy="225.926" r="24"/>
	<path opacity="0.65" fill="#FFFFFF" d="M232.449,201.782c13.334,0,24.144,10.809,24.144,24.145c0,13.333-10.813,24.22-24.146,24.22
		s-24.141-10.887-24.141-24.22C208.305,212.591,219.115,201.782,232.449,201.782z M224.446,224.593
		c-0.162,4.553,3.397,8.372,7.949,8.533c4.551,0.16,8.372-3.398,8.532-7.951c0.161-4.55-3.397-8.372-7.95-8.531
		C228.427,216.482,224.606,220.043,224.446,224.593z M229.026,232.402l-7.751,14.993c0,0,4.884,2.751,11.171,2.751
		c6.626,0,11.47-2.892,11.47-2.892l-7.766-14.79C232.436,234.197,229.026,232.402,229.026,232.402z"/>
</g>
<g id="world_x5F_ico">
	<path opacity="0.7" fill-rule="evenodd" clip-rule="evenodd" fill="#FFFFFF" d="M208.449,167.846
		c0.091,8.376,2.602,14.593,7.534,18.637c4.926,4.05,10.334,6.098,16.222,6.142c0.048,0,0.078,0,0.101,0c0.026,0,0.063,0,0.11,0
		c6.025,0,11.535-2.017,16.536-6.068c4.997-4.051,7.498-9.927,7.498-17.642c0-0.052,0-0.097,0-0.148c0-0.044,0-0.089,0-0.141
		c0-0.09,0-0.165,0-0.208c0-7.768-2.487-13.68-7.462-17.753c-4.978-4.073-10.477-6.084-16.501-6.039
		c-5.656,0-10.909,1.899-15.771,5.683c-4.858,3.784-7.615,9.607-8.266,17.463l0,0V167.846z M231.014,179.494v10.646l-1.615,0.074
		c-0.23-0.379-0.465-0.756-0.698-1.135c-0.235-0.378-0.444-0.734-0.63-1.068c-0.186-0.333-0.374-0.652-0.56-0.957
		c-0.191-0.312-0.377-0.602-0.564-0.891c-0.42-0.705-0.842-1.455-1.259-2.232c-0.42-0.779-0.842-1.669-1.263-2.664
		c0.559-0.282,1.392-0.572,2.489-0.853C228.012,180.132,229.376,179.821,231.014,179.494L231.014,179.494z M235.429,190.14h-1.612
		v-10.58c1.916,0.282,3.388,0.571,4.413,0.854c1.029,0.281,1.939,0.571,2.734,0.853c-0.281,0.572-0.633,1.254-1.051,2.062
		c-0.42,0.802-0.863,1.633-1.332,2.479c-0.469,0.808-0.971,1.603-1.508,2.381C236.538,188.968,235.989,189.622,235.429,190.14
		L235.429,190.14z M222.184,182.328c0.279,0.572,0.561,1.144,0.839,1.708c0.281,0.571,0.585,1.112,0.911,1.632
		c0.327,0.571,0.667,1.135,1.019,1.706c0.35,0.572,0.735,1.135,1.157,1.707c-1.311-0.378-2.398-0.771-3.259-1.172
		c-0.867-0.4-1.695-0.868-2.488-1.387c-0.421-0.282-0.843-0.578-1.265-0.882c-0.419-0.313-0.862-0.653-1.328-1.031
		c0.842-0.571,1.66-1.017,2.454-1.352c0.793-0.333,1.446-0.66,1.961-0.993V182.328z M247.059,184.606
		c-1.121,1.083-2.369,2.032-3.748,2.84c-1.377,0.803-2.885,1.35-4.522,1.632c1.354-1.661,2.361-3.153,3.016-4.473
		c0.651-1.329,1.121-2.248,1.398-2.775c0.517,0.237,0.971,0.467,1.366,0.674c0.399,0.216,0.74,0.416,1.018,0.609
		c0.373,0.237,0.678,0.475,0.912,0.712c0.234,0.23,0.42,0.468,0.56,0.704V184.606z M219.449,169.479c0,1.944,0.235,3.79,0.702,5.541
		c0.466,1.751,0.981,3.45,1.542,5.112c-0.608,0.283-1.171,0.542-1.685,0.779c-0.513,0.239-1.002,0.476-1.468,0.712
		c-0.424,0.186-0.832,0.385-1.229,0.602c-0.396,0.215-0.785,0.438-1.154,0.675c-0.564-0.757-1.066-1.527-1.508-2.308
		c-0.444-0.777-0.854-1.572-1.227-2.38c-0.746-1.603-1.307-3.183-1.682-4.719c-0.373-1.535-0.559-2.9-0.559-4.079h8.266V169.479z
		 M253.647,169.479c0,0.431-0.014,0.853-0.037,1.276c-0.021,0.43-0.057,0.854-0.105,1.283c-0.326,2.129-0.923,4.184-1.787,6.173
		c-0.863,1.988-1.881,3.554-3.044,4.688c-0.518-0.518-1.195-1.06-2.036-1.632c-0.838-0.572-1.798-1.136-2.874-1.707
		c0.794-2.128,1.344-3.939,1.647-5.43c0.304-1.491,0.479-2.924,0.526-4.295c0-0.045,0-0.104,0-0.179c0-0.066,0-0.155,0-0.244h7.709
		V169.479z M231.014,169.413v7.954c-0.234,0-0.48,0.006-0.74,0.028c-0.256,0.023-0.501,0.038-0.732,0.038
		c-0.793,0.097-1.625,0.274-2.49,0.533c-0.863,0.26-1.928,0.601-3.189,1.032c-0.281-0.571-0.548-1.283-0.804-2.129
		c-0.256-0.853-0.502-1.751-0.736-2.7c-0.188-0.898-0.34-1.766-0.455-2.596c-0.116-0.824-0.175-1.542-0.175-2.159H231.014
		L231.014,169.413z M243.764,169.479c0,1.136-0.161,2.448-0.49,3.938c-0.326,1.491-0.908,3.354-1.75,5.58
		c-0.282-0.097-0.597-0.2-0.948-0.318c-0.352-0.119-0.758-0.23-1.223-0.319c-0.33-0.096-0.666-0.192-1.017-0.289
		c-0.353-0.096-0.689-0.164-1.018-0.215c-0.652-0.141-1.282-0.261-1.889-0.349c-0.608-0.097-1.146-0.171-1.612-0.215v-7.878h9.947
		V169.479z M221.694,157.193c-0.561,1.135-1.077,2.619-1.542,4.445c-0.467,1.817-0.702,3.679-0.702,5.571l-8.266,0.066
		c0.278-2.789,0.85-5.313,1.713-7.559c0.864-2.248,2.137-4.201,3.822-5.861c0.279,0.289,0.582,0.57,0.912,0.853
		c0.327,0.289,0.699,0.549,1.12,0.787c0.417,0.281,0.875,0.563,1.366,0.846c0.49,0.289,1.017,0.549,1.578,0.787V157.193z
		 M231.014,159.397v7.812l-9.32,0.066c0-0.705,0.033-1.454,0.103-2.233c0.072-0.779,0.175-1.572,0.314-2.381
		c0.19-0.846,0.42-1.7,0.703-2.552c0.279-0.854,0.63-1.632,1.049-2.344c0.513,0.282,1.063,0.519,1.649,0.712
		c0.582,0.187,1.156,0.349,1.716,0.49c0.656,0.193,1.307,0.327,1.962,0.393C229.847,159.434,230.451,159.441,231.014,159.397
		L231.014,159.397z M233.817,159.471c0.092,0,0.172,0,0.242,0c0.07,0,0.154,0,0.25,0c1.258-0.052,2.496-0.216,3.711-0.505
		c1.217-0.282,2.196-0.683,2.944-1.202c0.138,0.186,0.292,0.438,0.453,0.742c0.166,0.311,0.316,0.63,0.458,0.964
		c0.278,0.66,0.56,1.394,0.838,2.204c0.282,0.801,0.516,1.631,0.699,2.478c0.095,0.571,0.176,1.112,0.249,1.632
		c0.069,0.527,0.103,1.001,0.103,1.425h-9.947v-7.812V159.471z M248.182,153.855c1.633,1.66,2.955,3.687,3.958,6.075
		c1.003,2.39,1.508,4.815,1.508,7.279l-7.709,0.066c0-0.942-0.117-1.974-0.351-3.086c-0.235-1.113-0.538-2.233-0.912-3.376
		c-0.187-0.615-0.41-1.224-0.667-1.847c-0.252-0.608-0.524-1.202-0.806-1.773c0.377-0.185,0.735-0.363,1.088-0.525
		c0.352-0.172,0.688-0.35,1.018-0.535c0.557-0.29,1.083-0.608,1.574-0.957c0.491-0.355,0.926-0.816,1.299-1.387V153.855z
		 M229.399,146.473h1.615v10.72c-0.422,0-0.926-0.029-1.509-0.103c-0.585-0.075-1.205-0.178-1.856-0.32
		c-0.607-0.141-1.193-0.319-1.754-0.533c-0.559-0.216-1.05-0.461-1.471-0.742c0.235-0.571,0.501-1.173,0.805-1.811
		c0.305-0.637,0.645-1.29,1.019-1.958c0.234-0.476,0.469-0.92,0.699-1.35c0.238-0.423,0.495-0.845,0.772-1.276
		c0.278-0.476,0.56-0.921,0.842-1.343C228.84,147.326,229.121,146.904,229.399,146.473L229.399,146.473z M234.938,146.547
		c1.073,1.135,2.054,2.427,2.939,3.866c0.889,1.446,1.729,3.139,2.526,5.082c-0.517,0.378-1.146,0.683-1.893,0.919
		c-0.747,0.238-1.519,0.424-2.313,0.573c-0.421,0.088-0.832,0.148-1.228,0.178c-0.394,0.022-0.78,0.006-1.153-0.037v-10.654h1.121
		V146.547z M226.598,147.111c-0.094,0.141-0.186,0.275-0.281,0.394c-0.092,0.118-0.188,0.252-0.278,0.393
		c-0.703,1.039-1.392,2.159-2.068,3.369c-0.678,1.209-1.274,2.455-1.788,3.73c-0.419-0.289-0.793-0.548-1.12-0.787
		c-0.329-0.237-0.655-0.445-0.981-0.637c-0.33-0.238-0.633-0.461-0.912-0.676c-0.282-0.208-0.563-0.46-0.841-0.741
		c0.748-0.712,1.577-1.374,2.488-1.989c0.909-0.616,1.831-1.157,2.764-1.631c0.517-0.283,1.029-0.549,1.542-0.779
		c0.516-0.237,1.005-0.475,1.474-0.712V147.111z M247.059,152.157c-0.281,0.281-0.619,0.57-1.018,0.853
		c-0.396,0.282-0.78,0.542-1.154,0.779c-0.42,0.237-0.83,0.459-1.226,0.674c-0.396,0.215-0.736,0.394-1.018,0.534
		c-0.559-1.423-1.168-2.804-1.819-4.154c-0.656-1.351-1.518-2.59-2.595-3.732c1.354,0.572,2.756,1.209,4.206,1.921
		c1.45,0.706,2.987,1.729,4.624,3.049V152.157z"/>
</g>
<g id="opensoc">
</g>
<g id="sandclock">
	<g opacity="0.8">
		<g opacity="0.75">
			<path fill="#FFFFFF" d="M208.43,309.26c0,1.563,1.8,2.842,4,2.842h31.2c2.2,0,4-1.279,4-2.842s-1.8-2.842-4-2.842h-31.2
				C210.23,306.418,208.43,307.698,208.43,309.26z"/>
		</g>
		<g opacity="0.75">
			<path fill="#FFFFFF" d="M208.43,269.346c0,1.563,1.8,2.842,4,2.842h31.2c2.2,0,4-1.279,4-2.842c0-1.563-1.8-2.843-4-2.843h-31.2
				C210.23,266.503,208.43,267.783,208.43,269.346z"/>
		</g>
		<path opacity="0.75" fill="#FFFFFF" d="M213.222,304.695c0-8.213,6.63-14.87,14.81-14.87c8.179,0,14.808,6.657,14.808,14.87
			 M240.089,303.314c0-6.687-5.398-12.108-12.058-12.108c-6.66,0-12.059,5.422-12.059,12.108H240.089z"/>
		<path opacity="0.75" fill="#FFFFFF" d="M242.839,273.21c0,8.212-6.629,14.87-14.808,14.87c-8.179,0-14.81-6.658-14.81-14.87
			 M217.667,279.297c0,4.254,4.633,7.704,10.346,7.704c5.714,0,10.345-3.45,10.345-7.704H217.667z"/>
	</g>
</g>
<g id="check_x5F_green">
	<g opacity="0.75">
		<g>
			<path fill="#06C149" d="M372.575,9.166l-13.5,13.5l-7.5-7.5v-9l7.5,7.477l13.5-13.477V9.166z"/>
		</g>
	</g>
</g>
<g id="check_x5F_blue">
	<g opacity="0.75">
		<g>
			<path fill="#03F0FC" d="M372.575,36.267l-13.5,13.5l-7.5-7.5v-9l7.5,7.477l13.5-13.477V36.267z"/>
		</g>
	</g>
</g>
<g id="check_x5F_orange">
	<g opacity="0.75">
		<g>
			<path fill="#EA271C" d="M372.575,63.364l-13.5,13.5l-7.5-7.5v-9l7.5,7.477l13.5-13.477V63.364z"/>
		</g>
	</g>
</g>
<g id="cross_x5F_orange">
	<g opacity="0.75">
		<path fill="#EA271C" d="M373.474,112.191h-3.128l-7.821-7.723l-7.723,7.723h-3.226v-3.128l7.723-7.821l-7.723-7.723v-3.227h3.226
			l7.723,7.723l7.821-7.723h3.128v3.227l-7.723,7.723l7.723,7.723V112.191z"/>
	</g>
</g>
<g id="gplus">
	<g opacity="0.75">
		<g>
			<rect x="425.431" y="4.27" fill="#A30038" width="12" height="13"/>
			<rect x="437.431" y="4.27" fill="#0000A0" width="13" height="13"/>
			<rect x="425.431" y="17.27" fill="#BB5B2F" width="12" height="10"/>
			<rect x="437.431" y="17.27" fill="#003238" width="13" height="10"/>
		</g>
		<g opacity="0.75">
			<path fill="#FFFFFF" d="M439.76,9.156v4.481h4.068v4.977h-4.068v4.534h-4.869v-4.534h-4.067v-4.977h4.067V9.156H439.76z"/>
		</g>
	</g>
	<g opacity="0.7">
		<path fill="#FFFFFF" d="M422.431,29.27V4.17c0-2.2,2.3-3.9,4.5-3.9h22c2.2,0,3.5,1.7,3.5,3.9v25.1 M450.431,8.27
			c0-2.209-1.791-4-4-4h-17c-2.209,0-4,1.791-4,4v15c0,2.209,1.791,4,4,4h17c2.209,0,4-1.791,4-4V8.27z"/>
	</g>
</g>
<g id="face">
	<g opacity="0.7">
		<path fill="#FFFFFF" d="M422.431,72.27v-24.9c0-2.2,2.3-4.1,4.5-4.1h22c2.2,0,3.5,1.9,3.5,4.1v24.9 M450.431,51.27
			c0-2.209-1.791-4-4-4h-17c-2.209,0-4,1.791-4,4v15c0,2.209,1.791,4,4,4h17c2.209,0,4-1.791,4-4V51.27z"/>
	</g>
	<g opacity="0.75">
		<path fill="#FFFFFF" d="M435.162,58.297v-3.599c0-1.336,0.433-2.386,1.298-3.147c0.865-0.762,2.069-1.143,3.613-1.143h2.991v3.714
			h-2.323c-0.321,0-0.583,0.116-0.785,0.349s-0.303,0.542-0.303,0.925v2.899h3.411v3.761h-3.411v8.277h-4.492v-8.277h-2.354v-3.761
			H435.162z"/>
	</g>
</g>
<g id="beha">
	<g>
		<g opacity="0.7">
			<path fill="#FFFFFF" d="M422.431,115.27v-24.7c0-2.2,2.3-4.3,4.5-4.3h22c2.2,0,3.5,2.1,3.5,4.3v24.7 M450.431,94.27
				c0-2.209-1.791-4-4-4h-17c-2.209,0-4,1.791-4,4v15c0,2.209,1.791,4,4,4h17c2.209,0,4-1.791,4-4V94.27z"/>
		</g>
		<g>
			<path fill="#001DCE" d="M450.431,109.27c0,2.209-1.791,4-4,4h-17c-2.209,0-4-1.791-4-4v-15c0-2.209,1.791-4,4-4h17
				c2.209,0,4,1.791,4,4V109.27z"/>
		</g>
		<g opacity="0.75">
			<path fill="#FFFFFF" d="M428.693,96.265h4.601c0.91,0,1.59,0.038,2.037,0.113c0.448,0.076,0.848,0.234,1.202,0.476
				c0.353,0.241,0.647,0.561,0.883,0.961c0.236,0.401,0.354,0.85,0.354,1.346c0,0.54-0.146,1.034-0.437,1.484
				c-0.29,0.45-0.685,0.788-1.181,1.013c0.701,0.204,1.241,0.552,1.618,1.044s0.565,1.071,0.565,1.735
				c0,0.524-0.122,1.033-0.366,1.527c-0.243,0.495-0.575,0.891-0.997,1.185c-0.422,0.296-0.941,0.478-1.559,0.546
				c-0.387,0.042-1.322,0.068-2.803,0.079h-3.918V96.265z M431.018,98.18v2.663h1.523c0.906,0,1.468-0.013,1.688-0.04
				c0.398-0.047,0.711-0.184,0.939-0.413c0.227-0.228,0.341-0.527,0.341-0.899c0-0.356-0.098-0.645-0.294-0.868
				c-0.196-0.222-0.488-0.357-0.875-0.404c-0.23-0.026-0.893-0.04-1.986-0.04H431.018z M431.018,102.758v3.078h2.151
				c0.838,0,1.369-0.024,1.595-0.072c0.344-0.063,0.626-0.215,0.844-0.459c0.217-0.243,0.326-0.569,0.326-0.977
				c0-0.346-0.084-0.639-0.251-0.879c-0.167-0.242-0.409-0.417-0.727-0.526c-0.316-0.11-1.003-0.165-2.06-0.165H431.018z"/>
			<path fill="#FFFFFF" d="M444.714,105.122l2.304,0.369c-0.296,0.806-0.764,1.419-1.403,1.84c-0.639,0.422-1.439,0.633-2.398,0.633
				c-1.52,0-2.644-0.474-3.374-1.421c-0.576-0.759-0.863-1.716-0.863-2.874c0-1.382,0.378-2.464,1.136-3.246
				c0.756-0.784,1.714-1.175,2.871-1.175c1.3,0,2.325,0.41,3.077,1.229c0.751,0.819,1.111,2.074,1.078,3.765h-5.792
				c0.016,0.655,0.202,1.164,0.559,1.528c0.356,0.364,0.801,0.545,1.333,0.545c0.362,0,0.666-0.094,0.913-0.283
				C444.402,105.844,444.588,105.54,444.714,105.122z M444.845,102.891c-0.015-0.638-0.188-1.124-0.518-1.456
				c-0.329-0.332-0.73-0.499-1.202-0.499c-0.505,0-0.921,0.175-1.25,0.526c-0.33,0.351-0.492,0.827-0.486,1.428H444.845z"/>
			<rect x="440.431" y="96.27" fill="#FFFFFF" width="5" height="1"/>
		</g>
	</g>
</g>
<g id="twitt">
	<g>
		<g opacity="0.7">
			<path fill="#FFFFFF" d="M422.431,157.27v-24.7c0-2.2,2.3-4.3,4.5-4.3h22c2.2,0,3.5,2.1,3.5,4.3v24.7 M450.431,136.27
				c0-2.209-1.791-4-4-4h-17c-2.209,0-4,1.791-4,4v15c0,2.209,1.791,4,4,4h17c2.209,0,4-1.791,4-4V136.27z"/>
		</g>
		<g>
			<path fill="#29ABE2" d="M450.431,151.27c0,2.209-1.791,4-4,4h-17c-2.209,0-4-1.791-4-4v-15c0-2.209,1.791-4,4-4h17
				c2.209,0,4,1.791,4,4V151.27z"/>
		</g>
		<path opacity="0.75" fill="#FFFFFF" d="M447.367,138.735c-0.631,0.28-1.309,0.469-2.021,0.554
			c0.726-0.436,1.284-1.125,1.547-1.946c-0.68,0.403-1.433,0.696-2.234,0.854c-0.642-0.684-1.556-1.111-2.568-1.111
			c-1.943,0-3.518,1.575-3.518,3.518c0,0.275,0.031,0.543,0.091,0.801c-2.923-0.147-5.516-1.547-7.251-3.675
			c-0.303,0.519-0.476,1.124-0.476,1.768c0,1.221,0.621,2.298,1.564,2.928c-0.577-0.018-1.119-0.176-1.593-0.44
			c0,0.015,0,0.03,0,0.044c0,1.705,1.213,3.126,2.822,3.449c-0.295,0.081-0.605,0.124-0.927,0.124c-0.227,0-0.447-0.022-0.662-0.063
			c0.448,1.397,1.747,2.415,3.287,2.443c-1.204,0.944-2.721,1.506-4.37,1.506c-0.283,0-0.563-0.017-0.839-0.049
			c1.557,0.998,3.406,1.58,5.393,1.58c6.47,0,10.008-5.36,10.008-10.009c0-0.153-0.003-0.304-0.01-0.455
			C446.299,140.06,446.896,139.44,447.367,138.735z"/>
	</g>
</g>
<g id="guides" display="none">
</g>
</svg>
