<?xml version="1.0" encoding="utf-8"?>
<!-- Generator: Adobe Illustrator 16.0.0, SVG Export Plug-In . SVG Version: 6.00 Build 0)  -->
<!DOCTYPE svg PUBLIC "-//W3C//DTD SVG 1.1//EN" "http://www.w3.org/Graphics/SVG/1.1/DTD/svg11.dtd">
<svg version="1.1" id="Layer_1" xmlns="http://www.w3.org/2000/svg" xmlns:xlink="http://www.w3.org/1999/xlink" x="0px" y="0px"
	 width="478px" height="567.061px" viewBox="0 0 478 567.061" enable-background="new 0 0 478 567.061" xml:space="preserve">
<g id="bg" display="none">
	<rect x="0" display="inline" fill="#000066" width="479" height="567"/>
</g>
<g id="logo">
	<g>
		<path fill="#FFFFFF" d="M50.062,26.265c0.429-0.12,0.858-0.107,1.286,0.045c0.431,0.121,0.752,0.348,0.965,0.68
			c0.215,0.394,0.215,0.816,0,1.268c-1.071,2.085-2.536,3.702-4.394,4.851c-1.861,1.148-3.986,1.721-6.383,1.721
			c-3.5,0-6.324-1.329-8.47-3.987c-1.93-2.417-2.896-5.364-2.896-8.839c0-3.537,0.966-6.529,2.896-8.975
			c2.146-2.66,4.969-3.988,8.47-3.988c3.469,0,6.293,1.329,8.471,3.988c2.001,2.478,3.003,5.471,3.003,8.975v0.68H33.549
			c0.143,2.538,0.858,4.713,2.146,6.527c1.502,2.084,3.451,3.126,5.842,3.126c1.824,0,3.381-0.528,4.667-1.585
			c1.033-0.786,1.963-1.966,2.784-3.536C49.206,26.765,49.56,26.446,50.062,26.265z M49.422,20.191
			c-0.182-2.115-0.896-4.005-2.146-5.667c-1.505-1.994-3.415-2.991-5.739-2.991c-2.358,0-4.271,0.982-5.735,2.946
			c-1.215,1.633-1.908,3.537-2.088,5.712H49.422z"/>
		<path fill="#FFFFFF" d="M134.005,26.235c0.43-0.12,0.855-0.104,1.287,0.047c0.426,0.119,0.747,0.346,0.963,0.677
			c0.211,0.393,0.211,0.815,0,1.267c-1.073,2.084-2.538,3.697-4.388,4.843c-1.859,1.146-3.982,1.721-6.373,1.721
			c-3.495,0-6.313-1.328-8.456-3.984c-1.927-2.413-2.889-5.353-2.889-8.825c0-3.529,0.961-6.515,2.889-8.959
			c2.142-2.655,4.961-3.981,8.456-3.981c3.461,0,6.281,1.326,8.456,3.981c1.997,2.474,2.996,5.462,2.996,8.959v0.681h-19.426
			c0.143,2.532,0.855,4.704,2.14,6.515c1.498,2.082,3.445,3.123,5.834,3.123c1.82,0,3.374-0.528,4.657-1.583
			c1.033-0.786,1.961-1.959,2.784-3.529C133.146,26.734,133.505,26.418,134.005,26.235z M133.364,20.172
			c-0.181-2.113-0.889-3.999-2.141-5.656c-1.498-1.993-3.408-2.986-5.728-2.986c-2.354,0-4.265,0.979-5.724,2.941
			c-1.219,1.63-1.913,3.529-2.093,5.702L133.364,20.172L133.364,20.172z"/>
		<path fill="#FFFFFF" d="M94.259,14.173v19.14c0,0.45,0.162,0.825,0.479,1.127c0.322,0.238,0.71,0.359,1.174,0.359
			c0.426,0,0.802-0.134,1.118-0.405c0.359-0.271,0.534-0.63,0.534-1.081v-19.14H94.259z"/>
		<path fill="#FFFFFF" d="M97.569,11.786V10.34c0-0.421-0.18-0.75-0.535-0.991c-0.318-0.211-0.696-0.316-1.122-0.316
			c-0.464,0-0.854,0.12-1.174,0.361c-0.321,0.209-0.48,0.526-0.48,0.947v1.446L97.569,11.786L97.569,11.786z"/>
		<path fill="#FFFFFF" d="M104.55,9.336c0.321-0.211,0.712-0.316,1.175-0.316c0.424,0,0.8,0.105,1.119,0.316
			c0.355,0.241,0.534,1.123,0.534,1.575v0.988h4.376c0.961,0,1.441,0.405,1.441,1.218c-0.035,0.842-0.518,1.263-1.441,1.263h-4.376
			v15.789c0,0.541,0.178,0.993,0.533,1.354c0.426,0.452,1.031,0.677,1.813,0.677h1.921c0.5,0,0.909,0.122,1.229,0.361
			c0.286,0.239,0.424,0.527,0.424,0.858c0,0.33-0.138,0.614-0.424,0.855c-0.32,0.271-0.729,0.405-1.229,0.405h-2.506
			c-1.637,0-2.917-0.449-3.842-1.353c-0.816-0.811-1.229-1.803-1.229-2.978V14.379h-1.71c-0.818,0-1.229-0.421-1.229-1.263
			c0-0.813,0.411-1.218,1.229-1.218h1.71V10.91C104.07,10.458,104.227,9.577,104.55,9.336z"/>
		<g>
			<path fill="#FFFFFF" d="M24.351,10.377c2.064,1.196,3.105,3.004,3.105,5.422c0,1.656-0.367,2.432-1.095,3.399
				c-0.612,0.828-1.619,1.521-3.02,2.072c1.081,0.162,1.971,0.577,2.667,1.244c0.878,0.851,1.313,2.009,1.313,3.55
				c-0.03,1.612,0,3.394,0.088,4.201c0.087,1.382,0.292,2.228,0.611,2.921c0.179,0.368,0.179,0.702,0,1
				c-0.172,0.254-0.435,0.438-0.791,0.552c-0.375,0.092-0.74,0.092-1.089,0c-0.351-0.114-0.6-0.32-0.744-0.621
				c-0.383-0.736-0.627-1.763-0.744-3.073c-0.06-0.83-0.09-1.806-0.09-3.51l0.046-1.729c0-0.921-0.479-1.705-1.442-2.305
				c-0.848-0.529-1.725-0.795-2.625-0.795h-8.883v10.927c0,0.368-0.148,0.657-0.44,0.865c-0.262,0.205-0.566,0.31-0.918,0.31
				c-0.379,0-0.698-0.104-0.963-0.31c-0.259-0.207-0.39-0.497-0.39-1.4V12.018c0-0.709,0.362-1.606,1.092-2.16
				c0.758-0.573,2.044-0.862,3.851-0.862h4.462C20.748,8.996,22.745,9.456,24.351,10.377z M19.503,11.315h-5.777
				c-0.794,0-1.352,0.114-1.674,0.345c-0.292,0.208-0.441,0.581-0.441,1.114v7.44h7.894c5.673,0.031,4.938-4.693,4.938-4.693
				C24.441,11.114,19.503,11.315,19.503,11.315z"/>
		</g>
		<g>
			<path fill="#FFFFFF" d="M54.901,9.392c0.258-0.221,0.579-0.346,0.966-0.368c0.385-0.021,0.717,0.034,1.004,0.168
				c0.355,0.155,0.564,0.387,0.627,0.698l2.979,19.967l4.229-19.768c0.288-0.733,0.93-1.099,1.922-1.099s1.638,0.365,1.922,1.099
				l4.184,19.768l2.931-19.832c0.062-0.355,0.273-0.633,0.626-0.833c0.287-0.155,0.64-0.223,1.056-0.201
				c0.382,0.022,0.69,0.134,0.913,0.333c0.255,0.223,0.351,0.501,0.29,0.833l-3.8,23.462c-0.065,0.376-0.286,0.677-0.674,0.901
				c-0.349,0.197-0.766,0.298-1.247,0.298s-0.896-0.101-1.25-0.298c-0.388-0.224-0.607-0.524-0.67-0.901l-4.279-20.244
				l-4.324,20.311c-0.095,0.356-0.334,0.644-0.72,0.865c-0.353,0.178-0.77,0.267-1.25,0.267c-0.479,0-0.898-0.089-1.248-0.267
				c-0.389-0.222-0.597-0.509-0.628-0.865L54.662,10.29C54.566,9.913,54.646,9.615,54.901,9.392z"/>
		</g>
		<path fill="#FFFFFF" d="M81.953,19.692V13.59c0-1.228,0.407-2.269,1.225-3.119c0.925-0.944,2.208-1.418,3.843-1.418h2.508
			c0.501,0,0.911,0.143,1.229,0.425c0.282,0.254,0.425,0.552,0.425,0.899c0,0.346-0.144,0.781-0.425,1.034
			c-0.318,0.252-0.729,0.378-1.229,0.378h-1.92c-0.78,0-1.388,0.237-1.815,0.708c-0.354,0.379-0.529,0.716-0.529,1.283v5.911
			l0.014,0.029l-0.05,13.861c0,0.423-0.181,0.771-0.534,1.044c-0.318,0.241-0.694,0.361-1.118,0.361
			c-0.465,0-0.855-0.106-1.18-0.317c-0.316-0.273-0.48-0.637-0.48-1.088L81.953,19.692z"/>
	</g>
</g>
<g id="moodle">
	<g>
		<g opacity="0.75">
			<path fill="#FFFFFF" d="M15.023,70.336c-1.897-1.112-1.805-2.748,0.208-3.637L60.729,46.62c2.014-0.889,5.319-0.919,7.349-0.068
				l45.907,19.262c2.029,0.851,2.14,2.463,0.245,3.583L67.505,97.02c-1.895,1.12-4.997,1.126-6.896,0.014L15.023,70.336z"/>
		</g>
		<polygon opacity="0.75" fill="#EA271C" enable-background="new    " points="17.438,75.01 22.166,77.617 22.166,119.788 
			17.461,119.788 		"/>
		<rect x="12.51" y="159.256" opacity="0.75" fill="#EA271C" enable-background="new    " width="4.719" height="3.375"/>
		<polygon opacity="0.75" fill="#EA271C" enable-background="new    " points="17.196,140.904 21.614,140.904 21.614,162.651 
			17.218,162.651 		"/>
		<path opacity="0.75" fill="#EA271C" enable-background="new    " d="M19.676,119.407c5.922,0,10.725,4.881,10.725,10.9
			s-4.803,10.896-10.725,10.896c-5.926,0-10.728-4.877-10.728-10.896S13.75,119.407,19.676,119.407z M14.007,130.307
			c0,3.182,2.536,5.76,5.669,5.76c3.129,0,5.668-2.578,5.668-5.76c0-3.184-2.539-5.762-5.668-5.762
			C16.543,124.545,14.007,127.124,14.007,130.307z"/>
		<rect x="12.51" y="151.456" opacity="0.75" fill="#EA271C" enable-background="new    " width="4.719" height="3.373"/>
		<polygon opacity="0.75" fill="#FFFFFF" enable-background="new    " points="95.206,109.87 95.206,84.058 64.364,102.864 
			33.768,84.058 33.758,109.87 		"/>
	</g>
</g>
<g id="wordpress">
	<g opacity="0.7">
		<g>
			<path fill="#03F0FC" d="M19.909,250.795l0.815,4.761c-2.134,0.37-4.228,0.023-6.046-0.872c-2.836-1.395-4.997-4.117-5.579-7.515
				c-0.954-5.577,2.697-10.866,8.163-11.81l0.817,4.763c-2.893,0.499-4.821,3.291-4.313,6.241
				C14.272,249.315,17.021,251.296,19.909,250.795"/>
			<g>
				<g>
					<g>
						<path fill="#03F0FC" d="M114.948,236.621c0,2.2-1.8,4-4,4H18.143c-2.2,0-4-1.8-4-4v-61.286c0-2.2,1.8-4,4-4h92.807
							c2.199,0,4,1.8,4,4v61.286H114.948z M110.533,178.369c0-2.2-1.801-4-4-4H22.556c-2.2,0-4,1.8-4,4v55.218c0,2.2,1.8,4,4,4
							h83.978c2.199,0,4-1.8,4-4V178.369z"/>
					</g>
				</g>
				<g>
					<path fill="#FFFFFF" d="M106.844,229.999c0,2.2-1.8,4-4,4H28.491c-2.2,0-4-1.8-4-4v-47.76c0-2.2,1.8-4,4-4h74.353
						c2.2,0,4,1.8,4,4V229.999z"/>
				</g>
			</g>
			<rect x="18.99" y="288.951" fill="#03F0FC" width="5.403" height="3.364"/>
			<polygon fill="#03F0FC" points="23.641,270.498 28.026,270.498 28.026,292.336 23.663,292.336 			"/>
			<path fill="#03F0FC" d="M25.42,249.222c5.877,0,10.644,4.866,10.644,10.867s-4.767,10.864-10.644,10.864
				c-5.882,0-10.647-4.862-10.647-10.864S19.538,249.222,25.42,249.222z M19.793,260.089c0,3.172,2.517,5.743,5.626,5.743
				c3.104,0,5.625-2.57,5.625-5.743c0-3.174-2.521-5.744-5.625-5.744C22.31,254.345,19.793,256.916,19.793,260.089z"/>
			<rect x="18.99" y="281.176" fill="#03F0FC" width="5.403" height="3.361"/>
		</g>
		<path fill="#020F44" d="M66.456,181.272h1.804c5.474,0,10.797,2.236,15.969,6.706c5.113,5.257,7.668,11.269,7.668,18.036
			c0,7.673-3.218,14.228-9.652,19.664c-4.691,3.386-9.715,5.077-15.066,5.077c-7.037,0-13.202-2.81-18.496-8.428
			c-4.03-5.016-6.044-10.121-6.044-15.317v-1.812c0-6.163,2.526-11.903,7.579-17.22c0.12,0,0.751-0.543,1.894-1.631
			C56.862,182.964,61.644,181.272,66.456,181.272z M46.066,205.923c0,3.081,0.692,6.193,2.075,9.334
			c2.406,4.593,5.684,7.854,9.834,9.788h0.09l-10.014-27.732H47.87C46.668,200.273,46.066,203.144,46.066,205.923z M53.825,189.519
			c-2.226,2.054-3.639,3.625-4.24,4.712v0.182h0.36l6.856-0.272c0.42,0.182,0.631,0.453,0.631,0.816v0.272
			c0,0.483-1.021,0.725-3.067,0.725h-0.091v0.091l7.669,23.019h0.091l4.602-13.865l-3.248-9.154l-0.452-0.091
			c-1.744,0-2.615-0.332-2.615-0.997h0.09c0-0.363,0.149-0.634,0.45-0.816l5.956,0.272l5.864-0.272
			c0.3,0.061,0.511,0.302,0.63,0.725v0.272c0,0.543-1.052,0.815-3.157,0.815h-0.09l5.414,16.132
			c1.443,4.532,2.225,6.797,2.344,6.797l1.444-4.984c1.504-4.29,2.255-7.22,2.255-8.791c0-1.873-0.421-3.625-1.262-5.255
			c-1.685-2.538-2.525-4.411-2.525-5.62v-0.815c0.661-2.054,1.834-3.082,3.518-3.082l0.271,0.09v-0.09
			c-4.149-3.746-8.899-5.619-14.253-5.619C62.336,184.716,57.855,186.317,53.825,189.519z M61.223,226.313
			c1.865,0.605,3.849,0.908,5.955,0.908c2.345,0,4.69-0.394,7.037-1.178h0.09l-4.24-11.51c-1.563-4.531-2.405-6.797-2.525-6.797
			L61.223,226.313z M85.854,197.948c0,1.329-0.21,2.87-0.632,4.622l-7.397,21.66v0.091h0.09c1.022-0.604,2.104-1.39,3.249-2.358
			c4.81-4.469,7.217-9.786,7.217-15.949c0-3.445-0.841-6.859-2.526-10.242h-0.181L85.854,197.948z"/>
	</g>
</g>
<g id="key">
	<g opacity="0.75">
		<g>
			<g opacity="0.75">
				<rect x="18.744" y="415.585" fill="#06C149" width="12.979" height="9.288"/>
			</g>
			<g opacity="0.75">
				<path fill="#06C149" d="M31.633,365.085c0,0,2.688,0.788,5.953,0.841c3.291,0.054,6.198-0.522,6.198-0.522v59.523H31.692
					L31.633,365.085z"/>
			</g>
			<g opacity="0.75">
				<g>
					<path fill="#06C149" d="M38.452,305.927c16.286,0,29.495,13.432,29.495,29.997c0,16.563-13.209,29.984-29.495,29.984
						c-16.298,0-29.505-13.423-29.505-29.984C8.948,319.358,22.155,305.927,38.452,305.927z M22.861,335.924
						c0,8.755,6.976,15.849,15.592,15.849c8.604,0,15.589-7.094,15.589-15.849c0-8.762-6.983-15.854-15.589-15.854
						C29.836,320.067,22.861,327.162,22.861,335.924z"/>
				</g>
			</g>
			<g opacity="0.75">
				<rect x="18.744" y="394.119" fill="#06C149" width="12.979" height="9.283"/>
			</g>
		</g>
	</g>
</g>
<g id="circle">
	<path opacity="0.7" fill="#FFFFFF" enable-background="new    " d="M70.947,432.024c34.243,0,62.001,27.758,62.001,61.999
		c0,34.242-27.758,62.001-62.001,62.001c-34.242,0-61.998-27.758-61.998-62.001C8.948,459.782,36.705,432.024,70.947,432.024z
		 M20.871,494.023c0,27.657,22.42,50.077,50.076,50.077c27.658,0,50.079-22.42,50.079-50.077c0-27.656-22.42-50.076-50.079-50.076
		C43.291,443.947,20.871,466.367,20.871,494.023z"/>
</g>
<g id="elearning_x5F_ico">
	<g>
		<g opacity="0.7">
			<g>
				<path fill="#FFFFFF" d="M231.331,60.115c0,2.2,1.8,4,4,4h58.489c2.2,0,4-1.8,4-4V28.682c0-2.2-1.8-4-4-4h-58.489
					c-2.2,0-4,1.8-4,4V60.115L231.331,60.115z"/>
			</g>
			<ellipse fill="#FFFFFF" cx="236.186" cy="43.676" rx="20.366" ry="20.438"/>
			<ellipse fill="#FFFFFF" cx="254.207" cy="25.691" rx="12.99" ry="13.038"/>
			<ellipse fill="#FFFFFF" cx="278.82" cy="28.068" rx="19" ry="19.07"/>
		</g>
		<g>
			<path fill="#000066" d="M237.903,44.633c0-13.427,9.366-24.266,22.173-24.266c14.053,0,21.793,11.125,21.793,24.555v1.343
				h-38.614c0.479,10.071,7.169,18.416,18.063,18.416c5.831,0,11.186-2.205,15.103-6.426l2.581,3.264
				c-4.586,4.795-10.418,7.479-18.064,7.479C247.461,68.999,237.903,58.927,237.903,44.633z M259.982,24.684
				c-10.896,0-16.346,9.592-16.728,17.649h33.547C276.705,34.467,271.546,24.684,259.982,24.684z"/>
		</g>
	</g>
	<g opacity="0.75" enable-background="new    ">
		<g>
			<defs>
				<circle id="SVGID_1_" cx="245.82" cy="183.012" r="30"/>
			</defs>
			<clipPath id="SVGID_2_">
				<use xlink:href="#SVGID_1_"  overflow="visible"/>
			</clipPath>
			
				<circle opacity="0.85" clip-path="url(#SVGID_2_)" fill="#FFFFFF" enable-background="new    " cx="245.82" cy="183.012" r="30"/>
		</g>
		<g>
			<defs>
				<circle id="SVGID_3_" cx="245.82" cy="183.012" r="30"/>
			</defs>
			<clipPath id="SVGID_4_">
				<use xlink:href="#SVGID_3_"  overflow="visible"/>
			</clipPath>
			<g clip-path="url(#SVGID_4_)">
				<circle fill="#000066" cx="246.155" cy="181.681" r="10.38"/>
				<path fill="#000066" d="M246.154,181.682l14.097,29.455c0,0-13.72,5.887-28.377-0.254L246.154,181.682z"/>
			</g>
		</g>
	</g>
</g>
<g id="world_x5F_ico">
	<path opacity="0.7" fill="#FFFFFF" enable-background="new    " d="M215.82,110.413c0.114,10.47,3.254,18.242,9.417,23.296
		c6.158,5.063,12.918,7.623,20.277,7.678c0.061,0,0.098,0,0.126,0c0.032,0,0.078,0,0.138,0c7.531,0,14.419-2.521,20.671-7.585
		c6.245-5.064,9.371-12.408,9.371-22.053c0-0.065,0-0.121,0-0.186c0-0.055,0-0.112,0-0.176c0-0.112,0-0.206,0-0.26
		c0-9.709-3.107-17.1-9.326-22.191c-6.224-5.091-13.097-7.605-20.627-7.549c-7.07,0-13.638,2.375-19.714,7.104
		c-6.072,4.73-9.519,12.009-10.333,21.829l0,0V110.413L215.82,110.413z M244.026,124.973v13.308l-2.019,0.093
		c-0.288-0.474-0.581-0.946-0.873-1.419c-0.294-0.473-0.556-0.917-0.788-1.335c-0.232-0.417-0.467-0.815-0.699-1.196
		c-0.238-0.39-0.472-0.752-0.705-1.113c-0.524-0.881-1.053-1.819-1.573-2.791c-0.525-0.974-1.054-2.086-1.579-3.329
		c0.698-0.353,1.739-0.715,3.11-1.066C240.273,125.77,241.979,125.381,244.026,124.973L244.026,124.973z M249.545,138.281h-2.016
		v-13.225c2.396,0.353,4.234,0.714,5.517,1.067c1.286,0.352,2.424,0.714,3.418,1.066c-0.353,0.715-0.792,1.568-1.314,2.578
		c-0.524,1.002-1.079,2.041-1.665,3.098c-0.586,1.01-1.213,2.003-1.885,2.976C250.931,136.816,250.245,137.632,249.545,138.281
		L249.545,138.281z M232.988,128.515c0.35,0.715,0.701,1.43,1.05,2.135c0.352,0.714,0.73,1.39,1.139,2.04
		c0.408,0.714,0.833,1.418,1.273,2.132c0.438,0.715,0.919,1.419,1.445,2.133c-1.639-0.473-2.998-0.964-4.074-1.465
		c-1.083-0.5-2.117-1.085-3.109-1.733c-0.526-0.353-1.054-0.723-1.581-1.103c-0.524-0.391-1.077-0.816-1.66-1.289
		c1.053-0.714,2.074-1.271,3.067-1.689c0.991-0.417,1.808-0.824,2.45-1.241V128.515z M264.083,131.363
		c-1.401,1.354-2.962,2.54-4.687,3.551c-1.721,1.003-3.605,1.688-5.651,2.04c1.691-2.076,2.95-3.941,3.771-5.591
		c0.813-1.661,1.4-2.81,1.748-3.468c0.646,0.296,1.213,0.584,1.707,0.843c0.499,0.27,0.925,0.52,1.272,0.761
		c0.466,0.296,0.848,0.593,1.14,0.89c0.293,0.288,0.525,0.584,0.7,0.88V131.363L264.083,131.363z M229.57,112.454
		c0,2.431,0.294,4.738,0.879,6.926c0.581,2.189,1.227,4.313,1.928,6.39c-0.76,0.354-1.464,0.677-2.105,0.974
		c-0.641,0.298-1.253,0.594-1.835,0.891c-0.53,0.232-1.039,0.481-1.536,0.752c-0.495,0.269-0.979,0.547-1.441,0.843
		c-0.705-0.946-1.332-1.909-1.885-2.885c-0.556-0.972-1.066-1.965-1.533-2.976c-0.934-2.004-1.635-3.979-2.103-5.899
		c-0.467-1.919-0.699-3.625-0.699-5.099h10.332L229.57,112.454L229.57,112.454z M272.318,112.454c0,0.538-0.018,1.066-0.046,1.595
		c-0.025,0.537-0.07,1.067-0.132,1.604c-0.407,2.662-1.153,5.23-2.232,7.716c-1.079,2.485-2.353,4.442-3.807,5.86
		c-0.646-0.647-1.493-1.325-2.545-2.04c-1.048-0.715-2.248-1.42-3.593-2.134c0.993-2.661,1.68-4.924,2.06-6.787
		c0.38-1.864,0.6-3.655,0.658-5.37c0-0.057,0-0.13,0-0.223c0-0.083,0-0.194,0-0.305h9.637V112.454z M244.026,112.371v9.942
		c-0.292,0-0.601,0.008-0.925,0.035c-0.32,0.029-0.627,0.047-0.915,0.047c-0.992,0.121-2.032,0.343-3.111,0.667
		c-1.079,0.325-2.41,0.751-3.986,1.29c-0.353-0.714-0.687-1.604-1.005-2.662c-0.32-1.065-0.628-2.189-0.92-3.375
		c-0.234-1.123-0.426-2.207-0.568-3.245c-0.145-1.03-0.219-1.928-0.219-2.698L244.026,112.371L244.026,112.371z M259.964,112.454
		c0,1.419-0.201,3.061-0.612,4.923c-0.407,1.864-1.136,4.192-2.188,6.974c-0.354-0.121-0.746-0.25-1.187-0.398
		c-0.439-0.148-0.947-0.288-1.527-0.399c-0.412-0.121-0.832-0.241-1.271-0.361c-0.44-0.121-0.861-0.205-1.271-0.27
		c-0.815-0.176-1.604-0.326-2.361-0.436c-0.76-0.121-1.434-0.214-2.016-0.269v-9.848h12.435L259.964,112.454L259.964,112.454z
		 M232.376,97.096c-0.701,1.418-1.347,3.274-1.928,5.556c-0.585,2.272-0.879,4.599-0.879,6.964l-10.332,0.083
		c0.349-3.486,1.063-6.641,2.143-9.449c1.08-2.81,2.672-5.25,4.777-7.326c0.349,0.36,0.728,0.713,1.14,1.065
		c0.408,0.361,0.874,0.686,1.398,0.983c0.521,0.351,1.096,0.705,1.707,1.057c0.613,0.361,1.271,0.686,1.974,0.983V97.096z
		 M244.026,99.852v9.765l-11.649,0.083c0-0.881,0.041-1.818,0.129-2.791c0.09-0.974,0.219-1.966,0.393-2.977
		c0.237-1.057,0.525-2.125,0.879-3.19c0.35-1.066,0.787-2.04,1.312-2.93c0.642,0.352,1.328,0.648,2.062,0.89
		c0.728,0.233,1.445,0.437,2.146,0.612c0.82,0.241,1.634,0.409,2.453,0.491C242.567,99.898,243.322,99.907,244.026,99.852
		L244.026,99.852z M247.53,99.944c0.115,0,0.216,0,0.304,0c0.087,0,0.191,0,0.312,0c1.572-0.065,3.12-0.27,4.64-0.631
		c1.521-0.353,2.744-0.854,3.68-1.502c0.173,0.232,0.365,0.548,0.565,0.928c0.207,0.389,0.396,0.788,0.573,1.206
		c0.349,0.825,0.699,1.743,1.048,2.754c0.354,1.001,0.646,2.039,0.874,3.097c0.118,0.714,0.221,1.39,0.312,2.04
		c0.087,0.659,0.128,1.252,0.128,1.781H247.53v-9.765V99.944z M265.486,92.925c2.041,2.075,3.694,4.608,4.947,7.593
		c1.254,2.987,1.885,6.019,1.885,9.099l-9.637,0.083c0-1.178-0.146-2.467-0.438-3.857c-0.294-1.391-0.674-2.791-1.141-4.221
		c-0.232-0.769-0.513-1.529-0.833-2.308c-0.314-0.76-0.655-1.502-1.007-2.217c0.472-0.231,0.919-0.454,1.359-0.657
		c0.438-0.214,0.859-0.438,1.271-0.668c0.695-0.362,1.354-0.76,1.967-1.196c0.614-0.444,1.158-1.02,1.624-1.734L265.486,92.925
		L265.486,92.925z M242.008,83.697h2.019v13.399c-0.526,0-1.156-0.036-1.886-0.128c-0.73-0.094-1.506-0.223-2.32-0.4
		c-0.76-0.176-1.49-0.399-2.191-0.667c-0.699-0.27-1.313-0.577-1.839-0.928c0.294-0.714,0.627-1.466,1.006-2.263
		c0.381-0.796,0.807-1.613,1.272-2.448c0.293-0.594,0.586-1.15,0.874-1.687c0.298-0.528,0.618-1.057,0.967-1.595
		c0.348-0.595,0.698-1.151,1.052-1.679C241.309,84.763,241.66,84.235,242.008,83.697L242.008,83.697z M248.932,83.79
		c1.341,1.419,2.567,3.033,3.674,4.832c1.111,1.808,2.161,3.923,3.158,6.352c-0.646,0.473-1.432,0.853-2.366,1.149
		c-0.934,0.297-1.897,0.529-2.892,0.716c-0.526,0.11-1.039,0.186-1.534,0.222c-0.492,0.028-0.975,0.008-1.44-0.046V83.697h1.4V83.79
		L248.932,83.79z M238.507,84.494c-0.118,0.177-0.232,0.345-0.353,0.493c-0.114,0.148-0.233,0.315-0.348,0.491
		c-0.879,1.298-1.739,2.698-2.585,4.211c-0.848,1.512-1.593,3.068-2.234,4.663c-0.523-0.361-0.99-0.685-1.398-0.983
		c-0.411-0.296-0.818-0.556-1.228-0.796c-0.411-0.298-0.792-0.577-1.14-0.845c-0.353-0.26-0.704-0.575-1.052-0.926
		c0.935-0.891,1.972-1.717,3.109-2.487c1.137-0.77,2.288-1.446,3.455-2.039c0.646-0.353,1.286-0.686,1.929-0.974
		c0.645-0.296,1.257-0.593,1.843-0.891L238.507,84.494L238.507,84.494z M264.083,90.801c-0.353,0.352-0.773,0.713-1.272,1.065
		c-0.494,0.353-0.975,0.678-1.441,0.974c-0.525,0.296-1.038,0.574-1.532,0.843s-0.92,0.492-1.272,0.667
		c-0.698-1.779-1.46-3.505-2.273-5.192c-0.819-1.688-1.897-3.237-3.243-4.666c1.692,0.715,3.445,1.511,5.257,2.402
		c1.813,0.882,3.734,2.161,5.78,3.812v0.095H264.083z"/>
</g>
<g id="opensoc">
</g>
<g id="sandclock">
	<g opacity="0.8">
		<g opacity="0.75">
			<path fill="#FFFFFF" d="M215.797,287.181c0,1.954,1.8,3.553,4,3.553h41c2.2,0,4-1.599,4-3.553c0-1.953-1.8-3.553-4-3.553h-41
				C217.597,283.628,215.797,285.228,215.797,287.181z"/>
		</g>
		<g opacity="0.75">
			<path fill="#FFFFFF" d="M215.797,237.288c0,1.954,1.8,3.553,4,3.553h41c2.2,0,4-1.599,4-3.553c0-1.955-1.8-3.554-4-3.554h-41
				C217.597,233.734,215.797,235.333,215.797,237.288z"/>
		</g>
		<path opacity="0.75" fill="#FFFFFF" enable-background="new    " d="M221.786,281.474c0-10.266,8.288-18.588,18.512-18.588
			s18.51,8.322,18.51,18.588 M255.37,279.748c0-8.358-6.748-15.136-15.072-15.136c-8.325,0-15.073,6.777-15.073,15.136H255.37z"/>
		<path opacity="0.75" fill="#FFFFFF" enable-background="new    " d="M258.808,242.118c0,10.266-8.286,18.588-18.51,18.588
			s-18.512-8.322-18.512-18.588 M227.343,249.728c0,5.317,5.791,9.63,12.933,9.63c7.144,0,12.933-4.313,12.933-9.63H227.343z"/>
	</g>
</g>
<g id="check_x5F_green">
	<g opacity="0.75">
		<g>
			<path fill="#06C149" d="M381.144,17.896l-13.5,13.5l-7.5-7.5v-9l7.5,7.477l13.5-13.477V17.896z"/>
		</g>
	</g>
</g>
<g id="check_x5F_blue">
	<g opacity="0.75">
		<g>
			<path fill="#03F0FC" d="M381.144,44.997l-13.5,13.5l-7.5-7.5v-9l7.5,7.477l13.5-13.477V44.997z"/>
		</g>
	</g>
</g>
<g id="check_x5F_orange">
	<g opacity="0.75">
		<g>
			<path fill="#EA271C" d="M381.144,72.094l-13.5,13.5l-7.5-7.5v-9l7.5,7.477l13.5-13.477V72.094z"/>
		</g>
	</g>
</g>
<g id="cross_x5F_orange">
	<g opacity="0.75">
		<path fill="#EA271C" d="M382.041,120.921h-3.128l-7.82-7.723l-7.724,7.723h-3.226v-3.128l7.723-7.821l-7.723-7.723v-3.227h3.226
			l7.724,7.723l7.82-7.723h3.128v3.227l-7.723,7.723l7.723,7.723V120.921z"/>
	</g>
</g>
<g id="gplus">
	<g opacity="0.75">
		<g>
			<rect x="434" y="13" fill="#A30038" width="12" height="13"/>
			<rect x="446" y="13" fill="#0000A0" width="13" height="13"/>
			<rect x="434" y="26" fill="#BB5B2F" width="12" height="10"/>
			<rect x="446" y="26" fill="#003238" width="13" height="10"/>
		</g>
		<g opacity="0.75">
			<path fill="#FFFFFF" d="M448.328,17.886v4.481h4.068v4.977h-4.068v4.534h-4.868v-4.534h-4.067v-4.977h4.067v-4.481H448.328z"/>
		</g>
	</g>
	<g opacity="0.7">
		<path fill="#FFFFFF" d="M431,38V12.9c0-2.2,2.3-3.9,4.5-3.9h22c2.199,0,3.5,1.7,3.5,3.9V38 M459,17c0-2.209-1.791-4-4-4h-17
			c-2.21,0-4,1.791-4,4v15c0,2.209,1.79,4,4,4h17c2.209,0,4-1.791,4-4V17z"/>
	</g>
</g>
<g id="face">
	<g opacity="0.7">
		<path fill="#FFFFFF" d="M431,81V56.1c0-2.2,2.3-4.1,4.5-4.1h22c2.199,0,3.5,1.9,3.5,4.1V81 M459,60c0-2.209-1.791-4-4-4h-17
			c-2.21,0-4,1.791-4,4v15c0,2.209,1.79,4,4,4h17c2.209,0,4-1.791,4-4V60z"/>
	</g>
	<g opacity="0.75">
		<path fill="#FFFFFF" d="M443.731,67.027v-3.599c0-1.336,0.433-2.386,1.298-3.146c0.865-0.762,2.069-1.143,3.613-1.143h2.991v3.714
			h-2.323c-0.321,0-0.583,0.116-0.785,0.349c-0.202,0.233-0.303,0.542-0.303,0.925v2.899h3.411v3.761h-3.411v8.277h-4.492v-8.277
			h-2.354v-3.761h2.355V67.027z"/>
	</g>
</g>
<g id="beha">
	<g>
		<g opacity="0.7">
			<path fill="#FFFFFF" d="M431,124V99.3c0-2.2,2.3-4.3,4.5-4.3h22c2.199,0,3.5,2.1,3.5,4.3V124 M459,103c0-2.209-1.791-4-4-4h-17
				c-2.21,0-4,1.791-4,4v15c0,2.209,1.79,4,4,4h17c2.209,0,4-1.791,4-4V103z"/>
		</g>
		<g>
			<path fill="#001DCE" d="M459,118c0,2.209-1.791,4-4,4h-17c-2.21,0-4-1.791-4-4v-15c0-2.209,1.79-4,4-4h17c2.209,0,4,1.791,4,4
				V118z"/>
		</g>
		<g opacity="0.75">
			<path fill="#FFFFFF" d="M437.262,104.995h4.601c0.91,0,1.59,0.038,2.037,0.113c0.448,0.076,0.848,0.234,1.202,0.476
				c0.353,0.241,0.646,0.561,0.883,0.961c0.236,0.401,0.354,0.85,0.354,1.346c0,0.54-0.146,1.034-0.438,1.484
				c-0.29,0.45-0.685,0.788-1.181,1.013c0.701,0.204,1.241,0.552,1.618,1.044c0.377,0.492,0.564,1.071,0.564,1.735
				c0,0.524-0.122,1.033-0.366,1.527c-0.242,0.495-0.574,0.891-0.997,1.185c-0.422,0.296-0.94,0.478-1.559,0.546
				c-0.387,0.042-1.322,0.068-2.803,0.079h-3.918L437.262,104.995L437.262,104.995z M439.586,106.91v2.663h1.522
				c0.906,0,1.468-0.013,1.688-0.04c0.397-0.047,0.711-0.184,0.938-0.413c0.228-0.228,0.341-0.527,0.341-0.899
				c0-0.356-0.098-0.645-0.294-0.868c-0.195-0.222-0.487-0.357-0.875-0.404c-0.229-0.026-0.893-0.04-1.985-0.04L439.586,106.91
				L439.586,106.91z M439.586,111.488v3.078h2.15c0.838,0,1.369-0.024,1.595-0.072c0.345-0.063,0.626-0.215,0.845-0.459
				c0.217-0.243,0.326-0.569,0.326-0.977c0-0.346-0.084-0.639-0.252-0.879c-0.166-0.242-0.408-0.417-0.727-0.526
				c-0.316-0.11-1.003-0.165-2.06-0.165L439.586,111.488L439.586,111.488z"/>
			<path fill="#FFFFFF" d="M453.282,113.852l2.305,0.369c-0.297,0.806-0.765,1.419-1.403,1.84c-0.639,0.422-1.439,0.633-2.398,0.633
				c-1.52,0-2.644-0.474-3.374-1.421c-0.575-0.759-0.862-1.716-0.862-2.874c0-1.382,0.378-2.464,1.136-3.246
				c0.756-0.784,1.714-1.175,2.871-1.175c1.3,0,2.325,0.41,3.077,1.229c0.751,0.819,1.11,2.074,1.078,3.765h-5.793
				c0.017,0.655,0.202,1.164,0.56,1.528c0.355,0.364,0.801,0.545,1.333,0.545c0.362,0,0.666-0.094,0.913-0.283
				C452.971,114.574,453.156,114.27,453.282,113.852z M453.413,111.621c-0.015-0.638-0.188-1.124-0.518-1.456
				c-0.329-0.332-0.73-0.499-1.202-0.499c-0.505,0-0.921,0.175-1.25,0.526c-0.33,0.351-0.492,0.827-0.486,1.428L453.413,111.621
				L453.413,111.621z"/>
			<rect x="449" y="105" fill="#FFFFFF" width="5" height="1"/>
		</g>
	</g>
</g>
<g id="twitt">
	<g>
		<g opacity="0.7">
			<path fill="#FFFFFF" d="M431,166v-24.7c0-2.2,2.3-4.3,4.5-4.3h22c2.199,0,3.5,2.1,3.5,4.3V166 M459,145c0-2.209-1.791-4-4-4h-17
				c-2.21,0-4,1.791-4,4v15c0,2.209,1.79,4,4,4h17c2.209,0,4-1.791,4-4V145z"/>
		</g>
		<g>
			<path fill="#29ABE2" d="M459,160c0,2.209-1.791,4-4,4h-17c-2.21,0-4-1.791-4-4v-15c0-2.209,1.79-4,4-4h17c2.209,0,4,1.791,4,4
				V160z"/>
		</g>
		<path opacity="0.75" fill="#FFFFFF" enable-background="new    " d="M455.936,147.465c-0.631,0.28-1.309,0.469-2.021,0.554
			c0.727-0.436,1.284-1.125,1.548-1.946c-0.681,0.403-1.434,0.696-2.234,0.854c-0.642-0.684-1.556-1.111-2.568-1.111
			c-1.942,0-3.518,1.575-3.518,3.518c0,0.275,0.031,0.543,0.091,0.801c-2.923-0.146-5.516-1.547-7.251-3.675
			c-0.303,0.519-0.476,1.124-0.476,1.768c0,1.221,0.621,2.298,1.563,2.928c-0.577-0.018-1.119-0.176-1.593-0.44
			c0,0.015,0,0.03,0,0.044c0,1.705,1.213,3.126,2.822,3.449c-0.295,0.081-0.605,0.124-0.928,0.124c-0.227,0-0.446-0.022-0.661-0.063
			c0.447,1.397,1.746,2.415,3.286,2.443c-1.203,0.944-2.721,1.506-4.369,1.506c-0.283,0-0.563-0.017-0.84-0.049
			c1.558,0.998,3.406,1.58,5.394,1.58c6.47,0,10.008-5.36,10.008-10.009c0-0.153-0.003-0.304-0.01-0.455
			C454.867,148.79,455.464,148.17,455.936,147.465z"/>
	</g>
</g>
<g id="guides" display="none">
</g>
<g>
	<g>
		<g opacity="0.5">
			<line fill="none" stroke="#ACE9FC" stroke-width="2" stroke-miterlimit="10" x1="434.5" y1="199.796" x2="439.565" y2="194.73"/>
		</g>
		<g opacity="0.5">
			
				<ellipse fill="none" stroke="#ACE9FC" stroke-width="2" stroke-miterlimit="10" cx="444.016" cy="189.333" rx="5.992" ry="6.041"/>
		</g>
	</g>
</g>
</svg>
